<svg xmlns="http://www.w3.org/2000/svg" viewBox="0 0 90.36 64.74"><defs><style>.cls-1{fill:#c9d6f2;}.cls-2{fill:#b5c2e6;}.cls-3{fill:#7585f8;}.cls-4{fill:#acbfe2;}.cls-5{fill:#d0daea;}.cls-6{fill:#fff1d6;}.cls-7{fill:#465a65;}.cls-8{fill:#dee0ff;}.cls-9{fill:#36474f;}.cls-10{fill:#fff;}.cls-11{fill:#9696ea;}.cls-12{fill:#f5a4b7;}.cls-13{fill:#d7d4ff;}.cls-14{fill:#ffaa83;}.cls-15{fill:#e0e2e2;}.cls-16{fill:#ee9d7f;}.cls-17{fill:#fcdcda;}.cls-18{fill:#ebf2f2;}.cls-19{fill:#353a66;}.cls-20{fill:#ec364f;}</style></defs><g id="Calque_2" data-name="Calque 2"><g id="Layer_1" data-name="Layer 1"><path class="cls-1" d="M9.45,60.22s-14.09-19.13,0-32.9S8.54,5.39,22.44.43c7.35-2.62,19,7.62,37.58,7.45C70.24,7.78,91.49,9,84.49,42.56c-.85,4.09-5.64,11.13,2,16.76S9.45,60.22,9.45,60.22Z"/><path class="cls-2" d="M59.11,41.69l.53,1a43.2,43.2,0,0,0,9.78-8.37c6.2-7.13,8.86-15.21,7.7-23.38l-1,.12C78.78,30,59.3,41.58,59.11,41.69Z"/><path class="cls-2" d="M76.71,12.16s4.68-4.56.4-10.65C77.11,1.51,73.37,6.94,76.71,12.16Z"/><path class="cls-2" d="M76.56,18.22s8.29.31,8.86-9.12C85.42,9.1,81,8.8,76.56,18.22Z"/><path class="cls-2" d="M76.82,18.18S68.67,16.32,69.72,7C69.72,7,74.13,7.83,76.82,18.18Z"/><path class="cls-2" d="M74.49,25.71s8.25,1.2,9.75-8.07C84.24,17.64,79.82,16.86,74.49,25.71Z"/><path class="cls-2" d="M74.76,25.7s-8-2.71-6-11.88C68.78,13.82,73.09,15.15,74.76,25.7Z"/><path class="cls-2" d="M69.83,33.07s8,2.64,11-6.17C80.83,26.9,76.57,25.34,69.83,33.07Z"/><path class="cls-2" d="M70.11,33.1a9.88,9.88,0,0,1-4-12.7S70.19,22.47,70.11,33.1Z"/><path class="cls-2" d="M64.4,38.41s7.12,4.71,12.26-2.9C76.66,35.51,72.9,32.86,64.4,38.41Z"/><path class="cls-2" d="M64.66,38.52s-6.24-5.93-.72-13.22C63.94,25.3,67.39,28.38,64.66,38.52Z"/><path class="cls-3" d="M58.5,50.94C79.84,43.2,87.7,27.19,87.78,27l-.69-.33c-.08.16-7.82,15.89-28.85,23.52Z"/><rect class="cls-3" x="79.54" y="31.95" width="5.33" height="0.77" transform="matrix(0.19, -0.98, 0.98, 0.19, 34.83, 106.89)"/><polygon class="cls-3" points="77.73 38.66 78.5 38.65 78.41 33.33 77.64 33.33 77.73 38.66"/><rect class="cls-3" x="73.17" y="37.18" width="0.76" height="5.33" transform="translate(-0.52 0.98) rotate(-0.76)"/><rect class="cls-3" x="68.57" y="40.18" width="0.76" height="5.33" transform="matrix(1, -0.02, 0.02, 1, -0.68, 1.11)"/><rect class="cls-3" x="63.72" y="43.05" width="0.77" height="5.32" transform="translate(-0.92 1.32) rotate(-1.17)"/><polygon class="cls-3" points="82.72 34.29 87.55 32.05 87.23 31.36 82.4 33.59 82.72 34.29"/><rect class="cls-3" x="78.8" y="37" width="5.33" height="0.77" transform="translate(-6.59 20.61) rotate(-13.87)"/><rect class="cls-3" x="76.19" y="39.57" width="0.77" height="5.33" transform="translate(33.02 118.06) rotate(-89.01)"/><polygon class="cls-3" points="68.25 46.41 73.57 46.77 73.62 46.01 68.3 45.65 68.25 46.41"/><rect class="cls-3" x="63.99" y="46.89" width="0.76" height="5.33" transform="translate(5.18 105.19) rotate(-80.82)"/><path class="cls-3" d="M86.87,25a1.85,1.85,0,1,0,2.6.31A1.84,1.84,0,0,0,86.87,25Z"/><path class="cls-3" d="M81.3,27.23a1.88,1.88,0,0,0-.13,2.63,1.86,1.86,0,0,0,2.76-2.49A1.87,1.87,0,0,0,81.3,27.23Z"/><path class="cls-3" d="M77.14,30.62a1.86,1.86,0,1,0,2.43,1A1.86,1.86,0,0,0,77.14,30.62Z"/><path class="cls-3" d="M72.62,34.47a1.86,1.86,0,1,0,2.44,1A1.87,1.87,0,0,0,72.62,34.47Z"/><path class="cls-3" d="M68,37.47a1.86,1.86,0,1,0,2.44,1A1.86,1.86,0,0,0,68,37.47Z"/><path class="cls-3" d="M63.17,40.34a1.85,1.85,0,1,0,2.44,1A1.85,1.85,0,0,0,63.17,40.34Z"/><path class="cls-3" d="M90.14,32.48A1.86,1.86,0,1,1,89.38,30,1.86,1.86,0,0,1,90.14,32.48Z"/><path class="cls-3" d="M86.6,38a1.86,1.86,0,1,1-.27-2.61A1.86,1.86,0,0,1,86.6,38Z"/><path class="cls-3" d="M81.37,44.17a1.85,1.85,0,0,1-2.18-3,1.85,1.85,0,1,1,2.18,3Z"/><path class="cls-3" d="M75.63,48.39a1.86,1.86,0,1,1,.54-2.57A1.86,1.86,0,0,1,75.63,48.39Z"/><path class="cls-3" d="M68.85,52.15a1.85,1.85,0,1,1,.77-2.51A1.87,1.87,0,0,1,68.85,52.15Z"/><path class="cls-4" d="M86.46,61.37c0,1.61-9.77,3.37-38.18,3.37s-40-1.27-40-2.88,11.63-3,40-3S86.46,59.75,86.46,61.37Z"/><path class="cls-2" d="M32.42,38l.82-.92A40.37,40.37,0,0,1,19.78,6.53l-1.24-.09A41.72,41.72,0,0,0,32.42,38Z"/><path class="cls-2" d="M19.29,7.45S20.68.59,16.78.57C15.12.56,14.05,3.64,19.29,7.45Z"/><path class="cls-2" d="M19.37,10s-3.42-6.6-6-3.8C12.25,7.44,13.5,10.73,19.37,10Z"/><path class="cls-2" d="M19,10.62s-.08-7.19,3.65-5.49C24.22,5.85,24.69,9.28,19,10.62Z"/><path class="cls-2" d="M20.25,16.6s-.42-7.23,3.37-5.71C25.24,11.53,25.86,15,20.25,16.6Z"/><path class="cls-2" d="M21.63,21.43s-.39-7.22,3.4-5.7C26.64,16.38,27.25,19.8,21.63,21.43Z"/><path class="cls-2" d="M24.29,27s-1.58-7.17,2.32-6.37C28.27,21,29.43,24.3,24.29,27Z"/><path class="cls-2" d="M27,31.21s-1.4-7.2,2.5-6.27C31.16,25.33,32.24,28.67,27,31.21Z"/><path class="cls-2" d="M31.29,36.07s-3.16-6.73.69-7C33.63,29,35.49,32,31.29,36.07Z"/><path class="cls-2" d="M19.9,15.05s-3.43-6.61-6-3.8C12.78,12.45,14,15.73,19.9,15.05Z"/><path class="cls-2" d="M21.27,20.05s-3.43-6.61-6-3.8C14.15,17.45,15.4,20.74,21.27,20.05Z"/><path class="cls-2" d="M23.31,24.71s-4.66-5.77-6.51-2.33C16,23.85,17.89,26.83,23.31,24.71Z"/><path class="cls-2" d="M26.09,29.62s-5.15-5.28-6.63-1.6C18.84,29.59,21,32.38,26.09,29.62Z"/><path class="cls-2" d="M29.55,34s-5.72-4.51-6.66-.58C22.49,35.14,25,37.61,29.55,34Z"/><path class="cls-3" d="M31.89,59.55l-.44,1.08a46,46,0,0,1-11.37-7.54C12.64,46.39,8.8,38.24,9,29.51h1.11C9.69,49.79,31.67,59.45,31.89,59.55Z"/><path class="cls-3" d="M9.56,30.77S4,26.58,7.76,19.62C7.76,19.62,12.4,24.85,9.56,30.77Z"/><path class="cls-3" d="M10.5,37.12S1.82,38.52,0,28.68C0,28.68,4.65,27.79,10.5,37.12Z"/><path class="cls-3" d="M10.21,37.11s8.34-3,6-12.71C16.23,24.4,11.71,25.88,10.21,37.11Z"/><path class="cls-3" d="M13.65,44.73S5.12,47.06,2.34,37.5C2.34,37.5,6.89,36.11,13.65,44.73Z"/><path class="cls-3" d="M13.36,44.75s8-3.88,4.76-13.26C18.12,31.49,13.75,33.45,13.36,44.75Z"/><path class="cls-3" d="M19.49,51.86s-8,3.81-12.36-5.06C7.13,46.8,11.4,44.61,19.49,51.86Z"/><path class="cls-3" d="M19.21,51.93a10.46,10.46,0,0,0,2.55-13.87S17.75,40.77,19.21,51.93Z"/><path class="cls-3" d="M25.9,56.78S19,62.65,12.63,55.31C12.63,55.31,16.24,52.05,25.9,56.78Z"/><path class="cls-3" d="M25.64,56.93s5.8-7-1-14C24.68,42.93,21.46,46.62,25.64,56.93Z"/><path class="cls-5" d="M65.47,17.43a2.08,2.08,0,1,1-2.08-2.08A2.08,2.08,0,0,1,65.47,17.43Z"/><rect class="cls-6" x="17.12" y="9.59" width="64.13" height="42.41" rx="2.79"/><polygon class="cls-7" points="58.42 61.2 40.06 61.2 41.18 45.31 56.75 45.31 58.42 61.2"/><rect class="cls-7" x="17.12" y="9.59" width="64.13" height="42.41" rx="2.79"/><rect class="cls-8" x="19.63" y="12.41" width="58.63" height="30.11"/><path class="cls-9" d="M19.91,52H78.46a2.79,2.79,0,0,0,2.79-2.79V45H17.12v4.18A2.79,2.79,0,0,0,19.91,52Z"/><rect class="cls-9" x="31.12" y="58.7" width="35.37" height="2.51"/><path class="cls-10" d="M39.92,23.05a3.54,3.54,0,0,1-3.53,3.54h0a3.54,3.54,0,0,1-3.54-3.54V4.63a3.54,3.54,0,0,1,3.54-3.54h0a3.54,3.54,0,0,1,3.53,3.54Z"/><rect class="cls-10" x="32.85" y="5.19" width="24.19" height="39.26"/><rect class="cls-10" x="36.39" y="1.09" width="24.19" height="4.84"/><path class="cls-11" d="M64.11,4.63a3.54,3.54,0,1,0-7.07,0V9.72h7.07Z"/><rect class="cls-11" x="26.76" y="40.12" width="27.17" height="7.44"/><path class="cls-10" d="M57,44a3.54,3.54,0,0,1-3.53,3.54h0A3.54,3.54,0,0,1,50,44V25.61a3.54,3.54,0,0,1,3.54-3.54h0A3.54,3.54,0,0,1,57,25.61Z"/><path class="cls-11" d="M26.76,47.57A3.54,3.54,0,0,0,30.29,44V40.12H23.22V44A3.54,3.54,0,0,0,26.76,47.57Z"/><path class="cls-12" d="M36.17,10.92l-.2.69h-.63l.83-2.7H37l.84,2.7h-.66l-.21-.69Zm.68-.46-.17-.57-.13-.53h0c0,.16-.08.37-.12.53l-.17.57Z"/><path class="cls-12" d="M38.25,11.61V8.91H39l.57,1a7.76,7.76,0,0,1,.44.92h0a9.93,9.93,0,0,1,0-1.12V8.91h.56v2.7h-.64l-.58-1a9.5,9.5,0,0,1-.47-1h0c0,.35,0,.73,0,1.18v.81Z"/><path class="cls-12" d="M41.73,10.92l-.19.69h-.63l.82-2.7h.81l.83,2.7h-.65l-.21-.69Zm.69-.46-.17-.57c0-.17-.1-.37-.14-.53h0c0,.16-.08.37-.13.53l-.16.57Z"/><path class="cls-12" d="M43.82,8.91h.61V11.1h1.08v.51H43.82Z"/><path class="cls-12" d="M46.21,11.61V10.5l-.85-1.59h.7l.28.65c.08.19.14.34.2.51h0c.06-.16.13-.32.21-.51L47,8.91h.68l-.89,1.57v1.13Z"/><path class="cls-12" d="M47.92,11.28l1.29-1.85v0H48v-.5h2v.35l-1.26,1.83H50v.51h-2.1Z"/><path class="cls-12" d="M52.1,10.47h-1v.64h1.11v.5H50.49V8.91h1.67v.5H51.1V10h1Z"/><path class="cls-12" d="M52.73,11a1.66,1.66,0,0,0,.68.17c.28,0,.43-.12.43-.29s-.13-.27-.45-.39-.74-.4-.74-.79.38-.82,1-.82a1.7,1.7,0,0,1,.69.14l-.14.49a1.27,1.27,0,0,0-.56-.13c-.27,0-.4.12-.4.26s.16.25.51.39.7.42.7.8-.35.84-1.09.84a1.85,1.85,0,0,1-.77-.16Z"/><rect class="cls-13" x="35.64" y="13.84" width="18.27" height="1.06"/><rect class="cls-13" x="35.64" y="16.51" width="18.27" height="1.06"/><rect class="cls-13" x="35.64" y="19.18" width="18.27" height="1.07"/><rect class="cls-13" x="35.64" y="23.23" width="18.27" height="1.07"/><rect class="cls-13" x="35.64" y="25.9" width="18.27" height="1.07"/><rect class="cls-13" x="35.64" y="28.57" width="18.27" height="1.07"/><rect class="cls-13" x="35.64" y="31.83" width="18.27" height="1.06"/><rect class="cls-13" x="35.64" y="34.51" width="18.27" height="1.06"/><rect class="cls-13" x="35.64" y="37.18" width="18.27" height="1.07"/><path class="cls-14" d="M58.81,29.17s-1.22-1-2-.4,1.16,0,1.38.85Z"/><path class="cls-15" d="M66.91,32.52c1,1.14.42,2-.38,2.3-1.26.5-3.93,2-4.76,1.31s-3.72-6.62-3.72-6.62a.57.57,0,0,1,.76-.34l4,4.53S66,31.44,66.91,32.52Z"/><path class="cls-16" d="M66.72,62.83c.58-.42.57-.51.48-.7a3.3,3.3,0,0,0-.29-.51l1.15-.39a4.22,4.22,0,0,1,.22,1.08A1.93,1.93,0,0,1,66.72,62.83Z"/><path class="cls-3" d="M68.28,62.31l0,0c.38,1-1,1.2-1.84,1.15s.26-.61.26-.61A1.93,1.93,0,0,0,68.28,62.31Z"/><path class="cls-11" d="M60.57,41.94a18,18,0,0,0,.15,3.77,22.74,22.74,0,0,0,1.67,5.54c.62,2.24,2.37,7.77,4.53,10.6.25.34,1.52-.22,1.5-.74-.17-3.51-.19-5.08-1.63-8.67a25.24,25.24,0,0,0,.89-4.32c0-1.65,0-5.59-1.16-7.26Z"/><path class="cls-16" d="M59.89,63.21c.66-.29.68-.38.63-.59a4.43,4.43,0,0,0-.17-.56l1.2-.14a5.71,5.71,0,0,1,0,1.11A2,2,0,0,1,59.89,63.21Z"/><path class="cls-3" d="M61.54,63v0c.17,1.05-1.26,1-2,.73s.37-.53.37-.53A2,2,0,0,0,61.54,63Z"/><path class="cls-11" d="M58.31,41.49a18.9,18.9,0,0,0-.65,3.71A22.41,22.41,0,0,0,58.12,51c.13,2.32.67,8.1,2.17,11.32.18.38,1.55.11,1.63-.41.58-3.46.9-5,.25-8.82A25.43,25.43,0,0,0,64,49c.38-1.6,1.14-5.47.39-7.34Z"/><path class="cls-17" d="M60.75,31.76c-1.17.89-2.17,3.07-2.63,10.19-.11,1.56,9,1.94,9,.37.08-4.18-.63-5.89-1.83-9.66C65,31.64,63.06,30,60.75,31.76Z"/><path class="cls-10" d="M59,35.31S57,42.87,57,46.85v6.56S64.17,54.92,68.36,52c0,0-.31-10.51-1.64-14.53Z"/><path class="cls-14" d="M51.72,31.42s-.43-2-.7-1.25-.65.91.23,1.85Z"/><path class="cls-18" d="M61.42,32.12a1.42,1.42,0,0,1,.18,2.54c-1.23,1-3.74,3.39-4.81,3s-5.69-5.72-5.69-5.72a.68.68,0,0,1,.72-.61l5.46,3.43S60.16,31.29,61.42,32.12Z"/><path class="cls-19" d="M61.6,24.89a2.61,2.61,0,0,0-2.18,2.88c0,1.93,0,2-.68,2.68-1.65,1.83,2.72,1.63,1.6,3.52-3.08,5.23,4.73,4.32,6.2,2.75,1.67-1.78,2.21-4.73.26-6-.64-.41.5-2.69-1-3.13S65.36,24.38,61.6,24.89Z"/><polygon class="cls-20" points="75.35 12.13 74.89 14.98 76.06 14.98 75.48 12.13 75.35 12.13"/><path class="cls-20" d="M76,12.13a.58.58,0,0,1-.58.58.59.59,0,1,1,0-1.17A.58.58,0,0,1,76,12.13Z"/><polygon class="cls-20" points="70.5 14.79 72.6 16.79 73.26 15.82 70.57 14.69 70.5 14.79"/><path class="cls-20" d="M70.86,14.27a.58.58,0,0,1,.16.81.6.6,0,0,1-.82.15.59.59,0,0,1-.15-.81A.57.57,0,0,1,70.86,14.27Z"/><polygon class="cls-20" points="81.21 17.36 78.33 17.2 78.45 18.36 81.22 17.48 81.21 17.36"/><path class="cls-20" d="M81.86,18a.58.58,0,0,1-.12-1.16.58.58,0,0,1,.64.52A.57.57,0,0,1,81.86,18Z"/><polygon class="cls-20" points="79.88 22.24 78.56 19.67 77.61 20.36 79.78 22.31 79.88 22.24"/><path class="cls-20" d="M79.69,23.1a.59.59,0,0,1,.13-.82.58.58,0,0,1,.69.94A.59.59,0,0,1,79.69,23.1Z"/><polygon class="cls-20" points="75.72 23.61 76.32 20.79 75.16 20.73 75.59 23.61 75.72 23.61"/><path class="cls-20" d="M75,24.16a.57.57,0,0,1,.61-.55.59.59,0,1,1-.06,1.17A.58.58,0,0,1,75,24.16Z"/><polygon class="cls-20" points="70.22 19.67 73.08 19.26 72.74 18.15 70.18 19.55 70.22 19.67"/><path class="cls-20" d="M69.47,19.21a.59.59,0,1,1-.39.73A.59.59,0,0,1,69.47,19.21Z"/><polygon class="cls-20" points="72.28 22.63 74.41 20.67 73.5 19.95 72.19 22.55 72.28 22.63"/><path class="cls-20" d="M71.41,22.68a.58.58,0,1,1,.91.72.57.57,0,0,1-.81.1A.58.58,0,0,1,71.41,22.68Z"/><polygon class="cls-20" points="78.55 13.05 76.63 15.21 77.61 15.84 78.65 13.12 78.55 13.05"/><path class="cls-20" d="M79.09,13.4a.59.59,0,1,1-.18-.81A.6.6,0,0,1,79.09,13.4Z"/><path class="cls-20" d="M79.57,18.28a3.89,3.89,0,1,1-3.89-3.89A3.89,3.89,0,0,1,79.57,18.28Z"/><polygon class="cls-20" points="70.47 17.57 73.26 18.31 73.38 17.14 70.48 17.45 70.47 17.57"/><path class="cls-20" d="M70.53,16.93a.59.59,0,0,1-.11,1.17.6.6,0,0,1-.53-.64A.59.59,0,0,1,70.53,16.93Z"/><polygon class="cls-20" points="73.38 13.59 74.08 16.4 75.16 15.94 73.5 13.54 73.38 13.59"/><path class="cls-20" d="M74,13.34a.58.58,0,0,1-.31.77.58.58,0,0,1-.76-.31A.58.58,0,1,1,74,13.34Z"/><polygon class="cls-20" points="80.27 15.51 77.48 16.29 77.98 17.35 80.32 15.62 80.27 15.51"/><path class="cls-20" d="M80.54,16.09a.59.59,0,0,1-.78-.29A.57.57,0,0,1,80,15a.58.58,0,0,1,.78.28A.59.59,0,0,1,80.54,16.09Z"/><polygon class="cls-20" points="76.81 13.52 75.69 16.19 76.83 16.46 76.93 13.55 76.81 13.52"/><path class="cls-20" d="M77.43,13.67A.58.58,0,1,1,77,13,.57.57,0,0,1,77.43,13.67Z"/><polygon class="cls-20" points="77.72 22.81 77.3 19.95 76.19 20.3 77.61 22.84 77.72 22.81"/><path class="cls-20" d="M77.11,23a.58.58,0,0,1,.38-.73.58.58,0,1,1,.35,1.11A.58.58,0,0,1,77.11,23Z"/><polygon class="cls-20" points="74.05 22.88 75.41 20.33 74.31 19.95 73.93 22.84 74.05 22.88"/><path class="cls-20" d="M73.45,22.67a.57.57,0,0,1,.74-.36.58.58,0,1,1-.74.36Z"/><polygon class="cls-20" points="74.05 22.88 75.41 20.33 74.31 19.95 73.93 22.84 74.05 22.88"/><path class="cls-20" d="M73.45,22.67a.57.57,0,0,1,.74-.36.58.58,0,1,1-.74.36Z"/><polygon class="cls-20" points="71.18 21.17 73.81 19.98 73.17 19.01 71.11 21.06 71.18 21.17"/><path class="cls-20" d="M70.82,20.63a.59.59,0,1,1-.16.81A.58.58,0,0,1,70.82,20.63Z"/><polygon class="cls-20" points="80.72 19.82 78.37 18.14 77.85 19.18 80.67 19.93 80.72 19.82"/><path class="cls-20" d="M80.44,20.4a.59.59,0,1,1,.52-1,.59.59,0,0,1-.52,1Z"/><path class="cls-20" d="M74.84,18.42a.69.69,0,0,1,.12,1,.68.68,0,0,1-.95.12.67.67,0,0,1-.12-.95A.68.68,0,0,1,74.84,18.42Z"/><path class="cls-20" d="M76.94,18.64a.68.68,0,1,1-.83,1.08.68.68,0,0,1,.83-1.08Z"/><path class="cls-20" d="M75,16.72a.68.68,0,0,1,.12,1,.67.67,0,0,1-1,.13A.68.68,0,0,1,75,16.72Z"/><path class="cls-20" d="M77.14,16.94a.68.68,0,0,1,.13.95.68.68,0,1,1-1.08-.83A.68.68,0,0,1,77.14,16.94Z"/><polygon class="cls-20" points="26.6 6.69 26.32 8.45 27.04 8.45 26.68 6.69 26.6 6.69"/><path class="cls-20" d="M27,6.69a.36.36,0,1,1-.36-.36A.36.36,0,0,1,27,6.69Z"/><polygon class="cls-20" points="23.62 8.33 24.91 9.56 25.31 8.96 23.66 8.27 23.62 8.33"/><path class="cls-20" d="M23.84,8a.35.35,0,0,1,.09.5.36.36,0,1,1-.09-.5Z"/><polygon class="cls-20" points="30.2 9.91 28.43 9.81 28.51 10.53 30.21 9.98 30.2 9.91"/><path class="cls-20" d="M30.61,10.27a.36.36,0,0,1-.4-.32.36.36,0,0,1,.32-.39.36.36,0,0,1,.08.71Z"/><polygon class="cls-20" points="29.38 12.91 28.57 11.33 27.99 11.75 29.32 12.96 29.38 12.91"/><path class="cls-20" d="M29.27,13.44a.36.36,0,0,1,.58-.43.36.36,0,1,1-.58.43Z"/><polygon class="cls-20" points="26.82 13.76 27.2 12.02 26.48 11.98 26.75 13.75 26.82 13.76"/><path class="cls-20" d="M26.4,14.09a.37.37,0,0,1,.38-.34.36.36,0,1,1-.38.34Z"/><polygon class="cls-20" points="23.45 11.33 25.2 11.08 24.99 10.39 23.42 11.26 23.45 11.33"/><path class="cls-20" d="M23,11.05a.36.36,0,0,1,.22.69.36.36,0,0,1-.45-.24A.35.35,0,0,1,23,11.05Z"/><polygon class="cls-20" points="24.71 13.15 26.02 11.95 25.46 11.5 24.65 13.1 24.71 13.15"/><path class="cls-20" d="M24.18,13.18a.35.35,0,0,1,.5-.06.36.36,0,0,1-.44.57A.36.36,0,0,1,24.18,13.18Z"/><polygon class="cls-20" points="28.57 7.26 27.38 8.59 27.99 8.98 28.63 7.3 28.57 7.26"/><path class="cls-20" d="M28.9,7.47a.36.36,0,0,1-.5.11.35.35,0,0,1-.11-.49.36.36,0,0,1,.5-.11A.35.35,0,0,1,28.9,7.47Z"/><path class="cls-20" d="M29.19,10.47A2.39,2.39,0,1,1,26.8,8.08,2.39,2.39,0,0,1,29.19,10.47Z"/><polygon class="cls-20" points="23.6 10.04 25.32 10.49 25.39 9.78 23.61 9.96 23.6 10.04"/><path class="cls-20" d="M23.64,9.65a.36.36,0,1,1-.4.32A.36.36,0,0,1,23.64,9.65Z"/><polygon class="cls-20" points="25.39 7.59 25.82 9.32 26.48 9.04 25.46 7.56 25.39 7.59"/><path class="cls-20" d="M25.75,7.44a.35.35,0,0,1-.19.47.36.36,0,1,1,.19-.47Z"/><polygon class="cls-20" points="29.63 8.77 27.91 9.25 28.21 9.9 29.66 8.84 29.63 8.77"/><path class="cls-20" d="M29.79,9.13a.36.36,0,0,1-.3-.66.36.36,0,0,1,.3.66Z"/><polygon class="cls-20" points="27.5 7.55 26.81 9.19 27.51 9.36 27.57 7.57 27.5 7.55"/><path class="cls-20" d="M27.88,7.64a.36.36,0,0,1-.43.27.37.37,0,0,1-.27-.44.36.36,0,0,1,.44-.26A.36.36,0,0,1,27.88,7.64Z"/><polygon class="cls-20" points="28.06 13.26 27.8 11.5 27.11 11.72 27.99 13.28 28.06 13.26"/><path class="cls-20" d="M27.68,13.38a.36.36,0,0,1,.24-.45.35.35,0,0,1,.45.23.36.36,0,0,1-.69.22Z"/><polygon class="cls-20" points="25.8 13.3 26.64 11.73 25.96 11.5 25.73 13.28 25.8 13.3"/><path class="cls-20" d="M25.43,13.17a.36.36,0,0,1,.45-.22.37.37,0,0,1,.23.46.36.36,0,0,1-.46.22A.36.36,0,0,1,25.43,13.17Z"/><polygon class="cls-20" points="25.8 13.3 26.64 11.73 25.96 11.5 25.73 13.28 25.8 13.3"/><path class="cls-20" d="M25.43,13.17a.36.36,0,0,1,.45-.22.37.37,0,0,1,.23.46.36.36,0,0,1-.46.22A.36.36,0,0,1,25.43,13.17Z"/><polygon class="cls-20" points="24.03 12.25 25.66 11.52 25.26 10.92 23.99 12.19 24.03 12.25"/><path class="cls-20" d="M23.82,11.92a.36.36,0,0,1,.39.6.37.37,0,0,1-.5-.1A.36.36,0,0,1,23.82,11.92Z"/><polygon class="cls-20" points="29.9 11.43 28.46 10.39 28.14 11.03 29.87 11.49 29.9 11.43"/><path class="cls-20" d="M29.73,11.78a.36.36,0,0,1-.16-.48.36.36,0,1,1,.16.48Z"/><path class="cls-20" d="M26.29,10.56a.43.43,0,0,1,.07.59.42.42,0,1,1-.66-.51A.43.43,0,0,1,26.29,10.56Z"/><path class="cls-20" d="M27.58,10.7a.42.42,0,1,1-.59.07A.43.43,0,0,1,27.58,10.7Z"/><path class="cls-20" d="M26.41,9.52a.41.41,0,0,1,.07.58.41.41,0,0,1-.58.08.42.42,0,0,1-.08-.59A.42.42,0,0,1,26.41,9.52Z"/><path class="cls-20" d="M27.7,9.65a.42.42,0,1,1-.51.66.42.42,0,0,1,.51-.66Z"/><polygon class="cls-20" points="74.53 34.1 74.36 35.15 74.79 35.15 74.58 34.1 74.53 34.1"/><path class="cls-20" d="M74.77,34.1a.22.22,0,1,1-.43,0,.22.22,0,0,1,.43,0Z"/><polygon class="cls-20" points="72.76 35.08 73.52 35.81 73.77 35.46 72.78 35.05 72.76 35.08"/><path class="cls-20" d="M72.89,34.89a.21.21,0,1,1-.3,0A.22.22,0,0,1,72.89,34.89Z"/><polygon class="cls-20" points="76.68 36.02 75.62 35.96 75.67 36.39 76.68 36.06 76.68 36.02"/><path class="cls-20" d="M76.92,36.24a.22.22,0,0,1-.24-.19.22.22,0,0,1,.19-.24.22.22,0,0,1,.24.19A.23.23,0,0,1,76.92,36.24Z"/><polygon class="cls-20" points="76.19 37.81 75.7 36.87 75.36 37.12 76.15 37.84 76.19 37.81"/><path class="cls-20" d="M76.12,38.12a.22.22,0,1,1,.3.05A.21.21,0,0,1,76.12,38.12Z"/><polygon class="cls-20" points="74.66 38.31 74.89 37.28 74.46 37.25 74.62 38.31 74.66 38.31"/><path class="cls-20" d="M74.41,38.51a.21.21,0,0,1,.23-.2.21.21,0,0,1,.2.22.22.22,0,1,1-.43,0Z"/><polygon class="cls-20" points="72.65 36.87 73.7 36.72 73.57 36.31 72.64 36.82 72.65 36.87"/><path class="cls-20" d="M72.38,36.7a.2.2,0,0,1,.26.14.21.21,0,1,1-.4.13A.21.21,0,0,1,72.38,36.7Z"/><polygon class="cls-20" points="73.41 37.95 74.19 37.23 73.85 36.97 73.37 37.92 73.41 37.95"/><path class="cls-20" d="M73.09,38a.22.22,0,0,1,.3,0,.22.22,0,1,1-.3,0Z"/><polygon class="cls-20" points="75.7 34.45 75 35.23 75.36 35.47 75.74 34.47 75.7 34.45"/><path class="cls-20" d="M75.9,34.57a.21.21,0,0,1-.29.07.21.21,0,0,1-.07-.3.21.21,0,0,1,.3-.06A.22.22,0,0,1,75.9,34.57Z"/><path class="cls-20" d="M76.07,36.36a1.42,1.42,0,1,1-1.42-1.43A1.42,1.42,0,0,1,76.07,36.36Z"/><polygon class="cls-20" points="72.74 36.1 73.77 36.37 73.81 35.94 72.75 36.05 72.74 36.1"/><path class="cls-20" d="M72.77,35.86a.23.23,0,0,1,.19.24.22.22,0,0,1-.24.19.22.22,0,0,1-.19-.23A.22.22,0,0,1,72.77,35.86Z"/><polygon class="cls-20" points="73.81 34.64 74.07 35.67 74.46 35.5 73.85 34.62 73.81 34.64"/><path class="cls-20" d="M74,34.55a.22.22,0,0,1-.12.28.21.21,0,0,1-.28-.11.22.22,0,0,1,.12-.28A.21.21,0,0,1,74,34.55Z"/><polygon class="cls-20" points="76.33 35.34 75.31 35.63 75.49 36.02 76.35 35.38 76.33 35.34"/><path class="cls-20" d="M76.43,35.55a.21.21,0,1,1-.18-.38.21.21,0,1,1,.18.38Z"/><polygon class="cls-20" points="75.07 34.62 74.66 35.59 75.07 35.69 75.11 34.63 75.07 34.62"/><path class="cls-20" d="M75.29,34.67a.2.2,0,0,1-.25.16.21.21,0,0,1-.16-.26.21.21,0,0,1,.26-.16A.22.22,0,0,1,75.29,34.67Z"/><polygon class="cls-20" points="75.4 38.02 75.25 36.97 74.84 37.1 75.36 38.03 75.4 38.02"/><path class="cls-20" d="M75.18,38.09a.21.21,0,1,1,.4-.13.21.21,0,1,1-.4.13Z"/><polygon class="cls-20" points="74.06 38.04 74.56 37.11 74.15 36.97 74.01 38.03 74.06 38.04"/><path class="cls-20" d="M73.83,38a.22.22,0,0,1,.28-.14.21.21,0,0,1,.13.27.21.21,0,0,1-.27.14A.22.22,0,0,1,73.83,38Z"/><polygon class="cls-20" points="74.06 38.04 74.56 37.11 74.15 36.97 74.01 38.03 74.06 38.04"/><path class="cls-20" d="M73.83,38a.22.22,0,0,1,.28-.14.21.21,0,0,1,.13.27.21.21,0,0,1-.27.14A.22.22,0,0,1,73.83,38Z"/><polygon class="cls-20" points="73 37.41 73.97 36.98 73.73 36.62 72.98 37.38 73 37.41"/><path class="cls-20" d="M72.87,37.22a.21.21,0,0,1,.3.06.22.22,0,0,1-.06.3.22.22,0,0,1-.3-.07A.22.22,0,0,1,72.87,37.22Z"/><polygon class="cls-20" points="76.5 36.92 75.64 36.31 75.45 36.69 76.48 36.96 76.5 36.92"/><path class="cls-20" d="M76.39,37.13a.2.2,0,0,1-.09-.28.21.21,0,0,1,.28-.1.22.22,0,0,1,.1.29A.21.21,0,0,1,76.39,37.13Z"/><path class="cls-20" d="M74.34,36.41a.25.25,0,0,1,0,.35.24.24,0,0,1-.35,0,.23.23,0,0,1,0-.34A.24.24,0,0,1,74.34,36.41Z"/><path class="cls-20" d="M75.12,36.49a.26.26,0,0,1,0,.35.24.24,0,0,1-.35,0,.23.23,0,0,1,0-.34A.25.25,0,0,1,75.12,36.49Z"/><path class="cls-20" d="M74.42,35.79a.25.25,0,0,1,0,.35.26.26,0,0,1-.35,0,.25.25,0,1,1,.31-.39Z"/><path class="cls-20" d="M75.19,35.87a.25.25,0,0,1-.31.39.26.26,0,0,1,0-.35A.24.24,0,0,1,75.19,35.87Z"/></g></g></svg>