<svg xmlns="http://www.w3.org/2000/svg" viewBox="0 0 98.51 66.4"><defs><style>.cls-1{fill:#c9d6f2;}.cls-2{fill:#b5c2e6;}.cls-3{fill:#7585f8;}.cls-4{fill:#acbfe2;}.cls-5{fill:#f5a4b7;}.cls-6{fill:#feeeee;}.cls-7{fill:#f9c0cf;}.cls-8{fill:#e887a0;}.cls-9{fill:#ffaa83;}.cls-10{fill:#9696ea;}.cls-11{fill:#a9b8ff;}.cls-12{fill:#ee9d7f;}.cls-13{fill:#6f6fc6;}.cls-14{fill:#7f7fd6;}.cls-15{fill:#353a66;}</style></defs><g id="Calque_2" data-name="Calque 2"><g id="Layer_1" data-name="Layer 1"><path class="cls-1" d="M58.15,63.26l-43.79.21C-6.35,51.12,3,29.5,7,23.37,19.59,3.84,33-.54,45.61,9.59c13.71,11,44.17-7.2,37.75,22.12C79.36,50,108,60,90.43,64.21Z"/><path class="cls-2" d="M68.45,64.07c14.81-17.19,13.83-35,13.81-35.18l-.76.05c0,.17,1,17.68-13.63,34.63Z"/><rect class="cls-2" x="79.62" y="33.57" width="0.77" height="5.33" transform="matrix(0.95, -0.31, 0.31, 0.95, -7.34, 26.98)"/><polygon class="cls-2" points="79.2 43.95 79.87 43.56 77.18 38.97 76.52 39.35 79.2 43.95"/><polygon class="cls-2" points="77.15 49.52 77.81 49.13 75.12 44.53 74.46 44.92 77.15 49.52"/><polygon class="cls-2" points="74.61 54.39 75.27 54.01 72.58 49.4 71.92 49.79 74.61 54.39"/><rect class="cls-2" x="70.39" y="54.11" width="0.77" height="5.32" transform="translate(-19.02 43.75) rotate(-30.49)"/><polygon class="cls-2" points="81.41 37.7 84.53 33.38 83.91 32.93 80.79 37.25 81.41 37.7"/><rect class="cls-2" x="79.16" y="40.62" width="5.33" height="0.77" transform="translate(-5.91 67.09) rotate(-43.17)"/><rect class="cls-2" x="77.28" y="47.25" width="5.33" height="0.77" transform="translate(-13.03 43.61) rotate(-28.31)"/><polygon class="cls-2" points="74.73 55.35 79.55 53.06 79.22 52.37 74.4 54.66 74.73 55.35"/><rect class="cls-2" x="70.22" y="59.61" width="5.33" height="0.77" transform="translate(-16.2 28.76) rotate(-20.14)"/><path class="cls-2" d="M80.45,27.52a1.86,1.86,0,1,0,2.42-1A1.85,1.85,0,0,0,80.45,27.52Z"/><path class="cls-2" d="M76.72,32.23a1.88,1.88,0,0,0,1.17,2.36,1.86,1.86,0,1,0-1.17-2.36Z"/><path class="cls-2" d="M74.75,37.23a1.85,1.85,0,1,0,2.6-.34A1.85,1.85,0,0,0,74.75,37.23Z"/><path class="cls-2" d="M72.7,42.8a1.85,1.85,0,1,0,2.6-.34A1.84,1.84,0,0,0,72.7,42.8Z"/><path class="cls-2" d="M70.15,47.67a1.86,1.86,0,1,0,2.61-.34A1.86,1.86,0,0,0,70.15,47.67Z"/><path class="cls-2" d="M67.33,52.54a1.86,1.86,0,1,0,2.61-.34A1.85,1.85,0,0,0,67.33,52.54Z"/><path class="cls-2" d="M87,32.49a1.86,1.86,0,1,1-1.89-1.83A1.85,1.85,0,0,1,87,32.49Z"/><path class="cls-2" d="M86.62,39.05a1.86,1.86,0,1,1-1.51-2.14A1.87,1.87,0,0,1,86.62,39.05Z"/><path class="cls-2" d="M85.07,47a1.85,1.85,0,1,1-.9-2.46A1.84,1.84,0,0,1,85.07,47Z"/><path class="cls-2" d="M82.13,53.46a1.86,1.86,0,1,1-.78-2.5A1.85,1.85,0,0,1,82.13,53.46Z"/><path class="cls-2" d="M78.06,60.06a1.86,1.86,0,1,1-.55-2.56A1.86,1.86,0,0,1,78.06,60.06Z"/><path class="cls-2" d="M22.09,44l-.87.69a43.83,43.83,0,0,1-5.94-11.42c-3.08-8.93-2.53-17.42,1.6-24.56l.92.5C8.21,25.8,22,43.82,22.09,44Z"/><path class="cls-2" d="M16.79,10s-2.64-6,3.61-10C20.4,0,21.85,6.44,16.79,10Z"/><path class="cls-2" d="M14.67,15.71S6.86,12.9,9.85,3.94C9.85,3.94,14.1,5.33,14.67,15.71Z"/><path class="cls-2" d="M14.44,15.57S22.7,16.9,25.22,7.82C25.22,7.82,20.8,7,14.44,15.57Z"/><path class="cls-2" d="M13.79,23.44s-8.1-2-6-11.15C7.76,12.29,12.15,13.23,13.79,23.44Z"/><path class="cls-2" d="M13.54,23.32s8.4.46,10-8.78C23.53,14.54,19,14.16,13.54,23.32Z"/><path class="cls-2" d="M15.36,32s-8.4-.53-7.9-9.83C7.46,22.16,12,22.31,15.36,32Z"/><path class="cls-2" d="M15.09,31.92a9.89,9.89,0,0,0,8.45-10.29S19,22,15.09,31.92Z"/><path class="cls-2" d="M18.4,39S10,40.68,8.11,31.7C8.11,31.7,12.59,30.66,18.4,39Z"/><path class="cls-2" d="M18.12,39s8-3.17,5.61-12C23.73,27,19.38,28.56,18.12,39Z"/><path class="cls-3" d="M22.62,55.42l.8-1A42.71,42.71,0,0,1,7.11,23.09H5.8A44.17,44.17,0,0,0,22.62,55.42Z"/><path class="cls-3" d="M6.66,24.09s1-7.33-3.12-7.09C1.79,17.11.87,20.43,6.66,24.09Z"/><path class="cls-3" d="M6.93,26.82S2.86,20.09.32,23.23C-.76,24.57.78,28,6.93,26.82Z"/><path class="cls-3" d="M6.56,27.46S6,19.88,10,21.41C11.76,22.06,12.49,25.65,6.56,27.46Z"/><path class="cls-3" d="M8.3,33.68s-.93-7.59,3.18-6.25C13.22,28,14.11,31.56,8.3,33.68Z"/><path class="cls-3" d="M10.09,38.68s-.9-7.59,3.2-6.24C15,33,15.91,36.58,10.09,38.68Z"/><path class="cls-3" d="M13.29,44.39s-2.17-7.46,2-6.87C17.07,37.76,18.52,41.18,13.29,44.39Z"/><path class="cls-3" d="M16.44,48.64s-2-7.51,2.21-6.79C20.42,42.15,21.78,45.6,16.44,48.64Z"/><path class="cls-3" d="M21.3,53.47s-3.81-6.88.25-7.4C23.28,45.85,25.45,48.88,21.3,53.47Z"/><path class="cls-3" d="M7.83,32.07s-4.07-6.74-6.61-3.59C.14,29.82,1.68,33.2,7.83,32.07Z"/><path class="cls-3" d="M9.62,37.25S5.54,30.52,3,33.66C1.93,35,3.47,38.38,9.62,37.25Z"/><path class="cls-3" d="M12.09,42s-5.31-5.77-7-2C4.33,41.62,6.52,44.65,12.09,42Z"/><path class="cls-3" d="M15.37,47s-5.8-5.22-7.11-1.24C7.71,47.49,10.16,50.28,15.37,47Z"/><path class="cls-3" d="M19.32,51.45S13,47.09,12.25,51.3C12,53.1,14.71,55.53,19.32,51.45Z"/><path class="cls-4" d="M95.5,63.06c0,1.62-2.37,3.34-39.46,3.34s-43.43-1.31-43.43-2.92S19,60.56,56,60.56,95.5,61.45,95.5,63.06Z"/><path class="cls-5" d="M45,24.77s2.73-4,8,0c4.42,3.32,20.5,19.26,17,39,0,0-.25,1.89-4,1.89s-3.69-2-8.83-2.77-14.36-1.38-14.56-11.7S42,28.17,45,24.77Z"/><path class="cls-6" d="M36.4,13.72h5.29V32s.25,4.66,4.52,6,10.57,1.38,12.71,8.55,4.9,11.82,7,12.7c0,0-5.27-1.79-8.68-13.37-.74-2.54-3.23-5.49-11.07-4.23C44,42,40.3,42.39,39,36Z"/><path class="cls-7" d="M52.55,24.46c-4.47-3.27-7.36,0-7.36,0a7.6,7.6,0,0,0-1.52,3c.29,3,1.65,5.81,4.85,6.18,6.42.74,13.17,1.44,14.68,5.78,1.2,3.48,3.71,11.32,6.12,10A48.26,48.26,0,0,0,52.55,24.46Z"/><path class="cls-8" d="M57.13,62.89c5.14.76,5.06,2.77,8.83,2.77a7.7,7.7,0,0,0,1.82-.19c-14-3.07-14-9.08-17.41-13.25-2.08-2.51-5.41-2.87-7.85-2.74,0,.58,0,1.15,0,1.71C42.77,61.51,52,62.14,57.13,62.89Z"/><path class="cls-6" d="M51,40.14s-4.86-2-3.27-5.15a13.18,13.18,0,0,0,1.17-8.8s1.49,4.55.3,7.19-2.13,3.88,2.9,6.21Z"/><path class="cls-6" d="M48.59,34.09s2.48-.51,2.57-2.13a25.52,25.52,0,0,1,.28-2.62s.05,1.52,0,2.75A3.54,3.54,0,0,1,48.16,35Z"/><path class="cls-6" d="M49.12,32S47,30.42,47.58,28.9s.78-2.34.78-2.34-.65,1.37-1.08,2.53A3.53,3.53,0,0,0,49.16,33Z"/><path class="cls-6" d="M52.27,40.62S56,43.94,53.71,44.9a5.2,5.2,0,0,0-3.51,4.18s-.05-3.13,1.76-4,3-1.1-.83-4.68Z"/><path class="cls-6" d="M52.83,42.14s-2.52.31-2.74,1.91a25.6,25.6,0,0,1-.49,2.59s.07-1.52.22-2.75a3.53,3.53,0,0,1,3.51-2.61Z"/><path class="cls-6" d="M53.8,44s1.94,1.79,1.27,3.26-1,2.27-1,2.27.76-1.31,1.29-2.43A3.53,3.53,0,0,0,53.84,43Z"/><path class="cls-6" d="M59.38,38s-.59-1.38.1-2,1-.95,1-.95-.7.5-1.23,1a2,2,0,0,0-.16,2.47Z"/><path class="cls-6" d="M55.15,41.27s2.38-2.13,5-.56,2.76,5.15,5.85,5.53a4.41,4.41,0,0,1-3.65-1.5c-1.57-1.77-2.57-5.24-6.47-2.87Z"/><path class="cls-6" d="M57.72,40.41s-.56-1.71.69-2.15a4.33,4.33,0,0,0,3.27-2.64s-.69,2.2-2,3-1.35.64-1.29,1.57Z"/><path class="cls-6" d="M61.48,45.39s-1,.7-.72,1.43.37,1.13.37,1.13-.31-.67-.52-1.22a1.56,1.56,0,0,1,.88-1.81Z"/><path class="cls-6" d="M61.23,43s-1.11.94-.36,1.81A3.84,3.84,0,0,1,62.2,48.1a4.91,4.91,0,0,0-.31-3c-.68-1.14-.74-1-.31-1.68Z"/><path class="cls-6" d="M58.31,48.05s-3.64,2.83-1.64,5.63a15.17,15.17,0,0,1,2.86,8.39s.28-4.72-1.28-7.08-2.61-3.41,1.1-6.6Z"/><path class="cls-6" d="M57.62,54.4s2.18,0,2.61,1.6.79,2.52.79,2.52-.28-1.5-.59-2.7a3.27,3.27,0,0,0-3.36-2.23Z"/><path class="cls-6" d="M58.5,56.3s-1.39,2-.61,3.35S59,61.8,59,61.8s-.84-1.23-1.45-2.28a3.77,3.77,0,0,1,.73-4.2Z"/><path class="cls-5" d="M33.54,24.61s-2.73-4-8,0c-4.43,3.33-20.5,19.26-17,39,0,0,.25,1.88,4,1.88s3.7-2,8.83-2.76S35.76,61.35,36,51,36.56,28,33.54,24.61Z"/><path class="cls-6" d="M42.13,13.56H36.85V31.8s-.26,4.65-4.53,6-10.57,1.38-12.7,8.55-4.91,11.82-7,12.7c0,0,5.27-1.79,8.68-13.38.74-2.54,3.23-5.49,11.07-4.23,2.25.36,5.91.76,7.17-5.66Z"/><path class="cls-7" d="M26,24.31c4.47-3.27,7.36,0,7.36,0a7.4,7.4,0,0,1,1.52,3c-.29,3-1.65,5.8-4.85,6.17-6.42.75-13.16,1.45-14.67,5.79-1.21,3.47-3.71,11.31-6.13,9.95A48.22,48.22,0,0,1,26,24.31Z"/><path class="cls-8" d="M21.4,62.74c-5.13.75-5,2.76-8.83,2.76a8.33,8.33,0,0,1-1.82-.18c14-3.07,14-9.08,17.42-13.26,2.07-2.5,5.4-2.87,7.84-2.73,0,.58,0,1.15,0,1.71C35.76,61.35,26.53,62,21.4,62.74Z"/><path class="cls-6" d="M27.58,40s4.86-2,3.27-5.16A13.15,13.15,0,0,1,29.67,26s-1.49,4.55-.3,7.19,2.13,3.89-2.9,6.21Z"/><path class="cls-6" d="M29.94,33.93s-2.48-.51-2.57-2.12a22.07,22.07,0,0,0-.28-2.62s-.05,1.51,0,2.75a3.52,3.52,0,0,0,3.28,2.89Z"/><path class="cls-6" d="M29.41,31.89s2.08-1.63,1.54-3.15-.78-2.34-.78-2.34.65,1.38,1.08,2.54a3.51,3.51,0,0,1-1.88,3.94Z"/><path class="cls-6" d="M26.27,40.46s-3.74,3.33-1.45,4.29c3.39,1.41,3.51,4.18,3.51,4.18s.05-3.14-1.75-4-3-1.1.82-4.68Z"/><path class="cls-6" d="M25.71,42s2.51.3,2.74,1.9a24.27,24.27,0,0,0,.48,2.59s-.06-1.52-.22-2.74a3.53,3.53,0,0,0-3.5-2.62Z"/><path class="cls-6" d="M24.73,43.82s-1.94,1.79-1.27,3.26,1,2.27,1,2.27-.76-1.32-1.28-2.44a3.52,3.52,0,0,1,1.54-4.09Z"/><path class="cls-6" d="M19.16,37.86s.58-1.38-.11-2-1-.94-1-.94.7.5,1.23,1a2,2,0,0,1,.16,2.48Z"/><path class="cls-6" d="M23.38,41.12s-2.38-2.14-5-.56-2.76,5.14-5.85,5.53a4.44,4.44,0,0,0,3.65-1.5c1.57-1.77,2.58-5.24,6.48-2.88Z"/><path class="cls-6" d="M20.81,40.25s.56-1.71-.69-2.15a4.33,4.33,0,0,1-3.27-2.64,6,6,0,0,0,2,3c1.35.75,1.36.63,1.29,1.57Z"/><path class="cls-6" d="M17.05,45.23s1,.71.72,1.44-.37,1.12-.37,1.12.31-.66.52-1.22a1.54,1.54,0,0,0-.88-1.8Z"/><path class="cls-6" d="M17.31,42.82s1.1,1,.35,1.82a3.8,3.8,0,0,0-1.33,3.3,4.91,4.91,0,0,1,.31-3c.68-1.13.74-1.05.31-1.68Z"/><path class="cls-6" d="M20.22,47.89s3.64,2.84,1.64,5.64A15.15,15.15,0,0,0,19,61.91s-.28-4.72,1.28-7.08,2.61-3.41-1.1-6.59Z"/><path class="cls-6" d="M20.91,54.24s-2.18,0-2.61,1.61-.78,2.51-.78,2.51.27-1.5.58-2.69a3.26,3.26,0,0,1,3.36-2.23Z"/><path class="cls-6" d="M20,56.15s1.4,2,.61,3.35-1.14,2.14-1.14,2.14.83-1.22,1.44-2.28a3.77,3.77,0,0,0-.73-4.2Z"/><path class="cls-5" d="M42.52,16.28a.65.65,0,0,1-.66.66h-5.1a.66.66,0,0,1-.66-.66h0a.67.67,0,0,1,.66-.66h5.1a.66.66,0,0,1,.66.66Z"/><path class="cls-5" d="M42.52,19.3a.66.66,0,0,1-.66.66h-5.1a.67.67,0,0,1-.66-.66h0a.67.67,0,0,1,.66-.66h5.1a.66.66,0,0,1,.66.66Z"/><path class="cls-5" d="M42.52,23.83a.66.66,0,0,1-.66.66h-5.1a.67.67,0,0,1-.66-.66h0a.66.66,0,0,1,.66-.66h5.1a.65.65,0,0,1,.66.66Z"/><path class="cls-5" d="M42.52,27.6a.66.66,0,0,1-.66.66h-5.1a.67.67,0,0,1-.66-.66h0a.66.66,0,0,1,.66-.66h5.1a.65.65,0,0,1,.66.66Z"/><path class="cls-9" d="M76.78,30.89s-1.2-2.29-1.28-1.48a1.9,1.9,0,0,0,1,2.18Z"/><path class="cls-10" d="M87.79,32.18c.43.08,1.51.72.9,1.49-1,1.21-5.09,1.87-6.22,1.74s-6.18-3.87-6.18-3.87a.69.69,0,0,1,.56-.77l6.11,2S86.3,31.9,87.79,32.18Z"/><path class="cls-3" d="M68.49,39.72c-8-1.18-15.54-9.53-18.41-20.3-1-3.93-.76-6.9.86-8.84C53.07,8,56.69,8.27,56.85,8.29l-.08,1s-3.27-.23-5.07,1.94c-1.4,1.67-1.62,4.34-.66,7.93,2.77,10.4,10,18.45,17.59,19.57Z"/><path class="cls-3" d="M69.55,39.61l-.62-.78c6-4.75,8.29-15.32,5.52-25.72-1-3.6-2.48-5.8-4.52-6.56-2.64-1-5.34.82-5.36.84L64,6.57c.13-.09,3.14-2.12,6.27-1,2.37.87,4.1,3.31,5.14,7.24C78.29,23.62,75.87,34.63,69.55,39.61Z"/><path class="cls-3" d="M58.64,8.81a1.13,1.13,0,0,1-1.13,1.13h-2a1.12,1.12,0,0,1-1.12-1.13h0a1.12,1.12,0,0,1,1.12-1.12h2a1.13,1.13,0,0,1,1.13,1.12Z"/><path class="cls-3" d="M66.13,6.17a1.13,1.13,0,0,1-.42,1.54L64,8.69a1.12,1.12,0,0,1-1.53-.42h0a1.12,1.12,0,0,1,.42-1.53l1.74-1a1.12,1.12,0,0,1,1.53.42Z"/><path class="cls-3" d="M56.51,32.81s.67-1.33,1.67-1.41,7.07,6.75,10.38,5.71c2.79-.88,5-8.8,6-9s2.42.42,2,1.33-2.83,10.33-7.58,11.08C64.64,41.24,56.09,34.81,56.51,32.81Z"/><path class="cls-3" d="M64.68,61c-2.14,0-5.11-1.07-8.11-5.54-6.46-9.61-20-22.4-29.76-20.7l-.17-1C36.89,32,50.79,45.06,57.4,54.89c2.73,4.06,5.89,5.79,8.88,4.86,3.28-1,5.63-5,5.59-9.45a22.56,22.56,0,0,0-2.93-11l.84-.54a23,23,0,0,1,3.09,11.57c0,4.9-2.61,9.27-6.29,10.41A6.43,6.43,0,0,1,64.68,61Z"/><path class="cls-3" d="M31.49,34.26a4.24,4.24,0,1,1-4.24-4.21A4.22,4.22,0,0,1,31.49,34.26Z"/><path class="cls-11" d="M29.37,34.26a2.12,2.12,0,1,1-2.12-2.1A2.11,2.11,0,0,1,29.37,34.26Z"/><path class="cls-12" d="M84.35,63.33c.64-.3.65-.38.6-.59a4.27,4.27,0,0,0-.18-.54L85.94,62a5.73,5.73,0,0,1,0,1.08A1.89,1.89,0,0,1,84.35,63.33Z"/><path class="cls-12" d="M98,58c0-.7-.08-.75-.29-.79a3.43,3.43,0,0,0-.57-.06L97.51,56a5.55,5.55,0,0,1,1,.44A1.94,1.94,0,0,1,98,58Z"/><path class="cls-13" d="M83.93,42.58a18.24,18.24,0,0,0,.83,3.6,22.36,22.36,0,0,0,2.63,5c1,2,6.17,4.81,9.7,6.26.38.15,1-1.3.72-1.73C95.71,52.43,94,51.14,92.17,51l-.74-4.58c-.62-3.85-1.06-4.3-2.45-5.71Z"/><path class="cls-14" d="M82.28,42.06a18.24,18.24,0,0,0-.55,3.66,21.6,21.6,0,0,0,.59,5.65c.18,2.27.85,7.93,2.4,11.05.19.37,1.51.07,1.59-.44.48-3.41.76-4.93,0-8.66a24.11,24.11,0,0,0,1.65-4c.35-1.58,1-5.4.22-7.22Z"/><path class="cls-10" d="M82.47,33.47c-1,1.11-1.5,3.43-.55,10.5.2,1.56,9.17.13,8.89-1.42-.74-4.1-1.78-5.65-3.7-9.1C86.6,32.52,84.39,31.27,82.47,33.47Z"/><path class="cls-9" d="M72.65,33.49s-1.43-2.15-1.43-1.35a1.92,1.92,0,0,0,1.18,2.08Z"/><path class="cls-10" d="M83.73,33.65c.44,0,1.58.57,1.06,1.39-.84,1.31-4.88,2.38-6,2.37s-6.54-3.22-6.54-3.22a.68.68,0,0,1,.48-.82L79,34.75S82.23,33.53,83.73,33.65Z"/><path class="cls-15" d="M82,26.58a2.59,2.59,0,0,0-1.56,3.24c.39,1.89.35,1.94-.14,2.77C79,34.71,83,34.67,82,36.61c-4.39,8.35,8.61,4.67,7.73,3-1.7-3.12.78-2.81-.18-5.21-.39-.94.82-2.34-1.33-3.2-.72-.28,0-2.73-1.66-2.85S85.54,25.33,82,26.58Z"/></g></g></svg>